# Blender v2.81 (sub 16) OBJ File: 'buildings2.blend'
# www.blender.org
mtllib flag.mtl
o Cylinder.003_Cylinder.004
v 0.388783 0.115965 -0.421880
v 0.388783 1.091826 -0.421880
v 0.399118 0.115965 -0.420862
v 0.399118 1.091826 -0.420862
v 0.409055 0.115965 -0.417848
v 0.409055 1.091826 -0.417848
v 0.418214 0.115965 -0.412953
v 0.418214 1.091826 -0.412953
v 0.426241 0.115965 -0.406365
v 0.426241 1.091826 -0.406365
v 0.432829 0.115965 -0.398337
v 0.432829 1.091826 -0.398337
v 0.437724 0.115965 -0.389179
v 0.437724 1.091826 -0.389179
v 0.440739 0.115965 -0.379242
v 0.440739 1.091826 -0.379242
v 0.441757 0.115965 -0.368907
v 0.441757 1.091826 -0.368907
v 0.440739 0.115965 -0.358572
v 0.440739 1.091826 -0.358572
v 0.437724 0.115965 -0.348635
v 0.437724 1.091826 -0.348635
v 0.432829 0.115965 -0.339477
v 0.432829 1.091826 -0.339477
v 0.426241 0.115965 -0.331449
v 0.426241 1.091826 -0.331449
v 0.418214 0.115965 -0.324861
v 0.418214 1.091826 -0.324861
v 0.409055 0.115965 -0.319966
v 0.409055 1.091826 -0.319966
v 0.399118 0.115965 -0.316952
v 0.399118 1.091826 -0.316952
v 0.388783 0.115965 -0.315934
v 0.388783 1.091826 -0.315934
v 0.378449 0.115965 -0.316952
v 0.378449 1.091826 -0.316952
v 0.368511 0.115965 -0.319966
v 0.368511 1.091826 -0.319966
v 0.359353 0.115965 -0.324861
v 0.359353 1.091826 -0.324861
v 0.351326 0.115965 -0.331449
v 0.351326 1.091826 -0.331449
v 0.344738 0.115965 -0.339477
v 0.344738 1.091826 -0.339477
v 0.339842 0.115965 -0.348635
v 0.339842 1.091826 -0.348635
v 0.336828 0.115965 -0.358572
v 0.336828 1.091826 -0.358572
v 0.335810 0.115965 -0.368907
v 0.335810 1.091826 -0.368907
v 0.336828 0.115965 -0.379242
v 0.336828 1.091826 -0.379242
v 0.339842 0.115965 -0.389179
v 0.339842 1.091826 -0.389179
v 0.344738 0.115965 -0.398337
v 0.344738 1.091826 -0.398337
v 0.351326 0.115965 -0.406365
v 0.351326 1.091826 -0.406365
v 0.359353 0.115965 -0.412953
v 0.359353 1.091826 -0.412953
v 0.368511 0.115965 -0.417848
v 0.368511 1.091826 -0.417848
v 0.378449 0.115965 -0.420862
v 0.378449 1.091826 -0.420862
v 0.388783 0.610411 -0.421880
v 0.399118 0.610411 -0.420862
v 0.409055 0.610411 -0.417848
v 0.418214 0.610411 -0.412953
v 0.426241 0.610411 -0.406365
v 0.432829 0.610411 -0.398337
v 0.437724 0.610411 -0.389179
v 0.440739 0.610411 -0.379242
v 0.441757 0.610411 -0.368907
v 0.440739 0.610411 -0.358572
v 0.437724 0.610411 -0.348635
v 0.432829 0.610411 -0.339477
v 0.426241 0.610411 -0.331449
v 0.418214 0.610411 -0.324861
v 0.409055 0.610411 -0.319966
v 0.399118 0.610411 -0.316952
v 0.388783 0.610411 -0.315934
v 0.378449 0.610411 -0.316952
v 0.368511 0.610411 -0.319966
v 0.359353 0.610411 -0.324861
v 0.351326 0.610411 -0.331449
v 0.344738 0.610411 -0.339477
v 0.339842 0.610411 -0.348635
v 0.336828 0.610411 -0.358572
v 0.335810 0.610411 -0.368907
v 0.336828 0.610411 -0.379242
v 0.339842 0.610411 -0.389179
v 0.344738 0.610411 -0.398337
v 0.351326 0.610411 -0.406365
v 0.359353 0.610411 -0.412953
v 0.368511 0.610411 -0.417848
v 0.378449 0.610411 -0.420862
v -0.399982 1.091826 0.484607
v -0.409140 1.091826 0.479712
v -0.417168 1.091826 0.473124
v -0.423756 1.091826 0.465096
v -0.399982 0.610411 0.484607
v -0.409140 0.610411 0.479712
v -0.417168 0.610411 0.473124
v -0.423756 0.610411 0.465096
v -0.397472 0.114334 0.375851
v -0.397472 0.114334 0.503093
v -0.531614 0.114334 0.503093
v -0.531614 0.114334 0.375851
v -0.531614 0.114334 -0.523212
v -0.531614 0.114334 -0.377555
v 0.494691 0.114334 0.503093
v 0.494691 0.114334 0.375851
v 0.494691 0.114334 -0.523212
v 0.376495 0.114334 -0.523212
v 0.494691 0.114334 0.224688
v -0.397472 0.114334 0.224688
v -0.531614 0.114334 0.224688
v -0.397472 0.114334 -0.523212
v -0.183428 0.114334 0.503093
v -0.183428 0.114334 -0.523212
v -0.397472 0.114334 -0.377555
v 0.494691 0.114334 -0.377555
v -0.531614 0.114334 -0.236929
v 0.376495 0.114334 0.503093
v 0.180522 0.114334 -0.523212
v 0.494691 0.114334 -0.236929
v -0.531614 0.114334 0.020301
v -0.397472 0.114334 -0.236929
v 0.494691 0.114334 0.020301
v -0.397472 0.114334 0.000914
v 0.180522 0.114334 0.503093
v 0.753806 0.114334 -0.565713
v 0.753806 0.114335 -0.785256
v 0.280271 0.114334 0.761650
v 0.575653 0.114334 0.761650
v 0.753806 0.114334 -0.353754
v -0.793101 0.114334 0.033958
v -0.793101 0.114334 0.342022
v 0.753806 0.114334 0.342022
v 0.753806 0.114334 0.033958
v -0.793101 0.114334 0.761650
v -0.590916 0.114334 0.761650
v 0.280271 0.114335 -0.785256
v -0.268296 0.114335 -0.785256
v -0.793101 0.114335 -0.785256
v -0.793101 0.114334 -0.565713
v 0.753806 0.114334 0.569864
v -0.793101 0.114334 0.569864
v 0.753806 0.114334 0.761650
v -0.793101 0.114334 -0.353754
v -0.590916 0.114335 -0.785256
v -0.268296 0.114334 0.761650
v 0.575653 0.114335 -0.785256
v 0.624249 0.114334 -0.471634
v 0.624249 0.114335 -0.654234
v 0.230397 0.114334 0.632372
v 0.476074 0.114334 0.632372
v 0.624249 0.114334 -0.295342
v -0.662358 0.114334 0.283355
v -0.662358 0.114334 0.027130
v 0.624249 0.114334 0.027130
v 0.624249 0.114334 0.283355
v -0.494194 0.114334 0.632372
v -0.662358 0.114334 0.632372
v -0.225862 0.114335 -0.654234
v 0.230397 0.114335 -0.654234
v -0.662358 0.114335 -0.654234
v -0.662358 0.114334 -0.471634
v 0.624249 0.114334 0.472857
v -0.662358 0.114334 0.472857
v 0.624249 0.114334 0.632372
v -0.662358 0.114334 -0.295342
v -0.494194 0.114335 -0.654234
v -0.225862 0.114334 0.632372
v 0.476074 0.114335 -0.654234
v 0.652319 0.114334 -0.492018
v 0.652319 0.114335 -0.682622
v 0.241203 0.114334 0.660382
v 0.497649 0.114334 0.660382
v 0.652319 0.114334 -0.307998
v -0.690685 0.114334 0.279961
v -0.690685 0.114334 0.028609
v 0.652319 0.114334 0.028609
v 0.652319 0.114334 0.296066
v -0.515151 0.114334 0.660382
v -0.690685 0.114334 0.660382
v -0.235056 0.114335 -0.682622
v 0.241203 0.114335 -0.682622
v -0.690685 0.114335 -0.682622
v -0.690685 0.114334 -0.492018
v 0.652319 0.114334 0.493875
v -0.690685 0.114334 0.477770
v 0.652319 0.114334 0.660382
v -0.690685 0.114334 -0.307998
v -0.515151 0.114335 -0.682622
v -0.235056 0.114334 0.660382
v 0.497649 0.114335 -0.682622
vt 0.049779 0.712648
vt 0.049779 0.689357
vt 0.053712 0.689357
vt 0.053712 0.712648
vt 0.057888 0.689357
vt 0.057888 0.712648
vt 0.062146 0.689357
vt 0.062146 0.712648
vt 0.066321 0.689357
vt 0.066321 0.712648
vt 0.070255 0.689357
vt 0.070255 0.712648
vt 0.073795 0.689357
vt 0.073795 0.712648
vt 0.076806 0.689357
vt 0.076806 0.712648
vt 0.138018 0.713279
vt 0.138018 0.736570
vt 0.135029 0.736570
vt 0.135029 0.713279
vt 0.131506 0.736570
vt 0.131506 0.713279
vt 0.127584 0.736570
vt 0.127584 0.713279
vt 0.123414 0.736570
vt 0.123414 0.713279
vt 0.119157 0.736570
vt 0.119157 0.713279
vt 0.114975 0.736570
vt 0.114975 0.713279
vt 0.111030 0.736570
vt 0.111030 0.713279
vt 0.107473 0.736570
vt 0.107473 0.713279
vt 0.138018 0.712648
vt 0.138018 0.689357
vt 0.141671 0.689357
vt 0.141671 0.712648
vt 0.145681 0.689357
vt 0.145681 0.712648
vt 0.149893 0.689357
vt 0.149893 0.712648
vt 0.162122 0.712648
vt 0.162122 0.689357
vt 0.165540 0.689357
vt 0.165540 0.712648
vt 0.107473 0.713279
vt 0.107473 0.736570
vt 0.104038 0.736570
vt 0.104038 0.713279
vt 0.100178 0.736570
vt 0.100178 0.713279
vt 0.096042 0.736570
vt 0.096042 0.713279
vt 0.091788 0.736570
vt 0.091788 0.713279
vt 0.087580 0.736570
vt 0.087580 0.713279
vt 0.083581 0.736570
vt 0.083581 0.713279
vt 0.079942 0.736570
vt 0.079942 0.713279
vt 0.076806 0.736570
vt 0.076806 0.713279
vt 0.666892 0.460563
vt 0.670335 0.463285
vt 0.673224 0.466685
vt 0.675447 0.470632
vt 0.676919 0.474974
vt 0.677583 0.479545
vt 0.677414 0.484169
vt 0.676418 0.488669
vt 0.674634 0.492870
vt 0.672130 0.496613
vt 0.669002 0.499753
vt 0.665371 0.502169
vt 0.661376 0.503769
vt 0.657170 0.504491
vt 0.652916 0.504307
vt 0.648777 0.503225
vt 0.644911 0.501286
vt 0.641468 0.498564
vt 0.638579 0.495164
vt 0.636356 0.491217
vt 0.634884 0.486875
vt 0.634220 0.482304
vt 0.634389 0.477680
vt 0.635384 0.473180
vt 0.637169 0.468979
vt 0.639673 0.465236
vt 0.642800 0.462096
vt 0.646432 0.459680
vt 0.650427 0.458080
vt 0.654632 0.457358
vt 0.658886 0.457542
vt 0.663026 0.458624
vt 0.043228 0.712648
vt 0.043228 0.689357
vt 0.046239 0.689357
vt 0.046239 0.712648
vt 0.000000 0.710536
vt 0.000831 0.705997
vt 0.002460 0.701722
vt 0.004825 0.697874
vt 0.007836 0.694602
vt 0.011376 0.692030
vt 0.015309 0.690260
vt 0.019485 0.689357
vt 0.023743 0.689357
vt 0.027919 0.690260
vt 0.031852 0.692030
vt 0.035392 0.694602
vt 0.038403 0.697874
vt 0.040768 0.701722
vt 0.042397 0.705997
vt 0.043228 0.710536
vt 0.043228 0.715164
vt 0.042397 0.719702
vt 0.040768 0.723978
vt 0.038403 0.727826
vt 0.035392 0.731098
vt 0.031852 0.733669
vt 0.027919 0.735440
vt 0.023743 0.736343
vt 0.019485 0.736343
vt 0.015309 0.735440
vt 0.011376 0.733669
vt 0.007836 0.731098
vt 0.004825 0.727826
vt 0.002460 0.723978
vt 0.000831 0.719702
vt 0.000000 0.715164
vt 0.046239 0.736570
vt 0.049779 0.736570
vt 0.043228 0.736570
vt 0.079942 0.689357
vt 0.076806 0.689357
vt 0.083581 0.689357
vt 0.087580 0.689357
vt 0.091788 0.689357
vt 0.096042 0.689357
vt 0.100178 0.689357
vt 0.104038 0.689357
vt 0.107473 0.689357
vt 0.162122 0.736570
vt 0.165540 0.736570
vt 0.158275 0.736570
vt 0.158275 0.712648
vt 0.154145 0.736570
vt 0.154145 0.712648
vt 0.149893 0.736570
vt 0.145681 0.736570
vt 0.141671 0.736570
vt 0.138018 0.736570
vt 0.111030 0.689357
vt 0.107473 0.689357
vt 0.114975 0.689357
vt 0.119157 0.689357
vt 0.123414 0.689357
vt 0.127584 0.689357
vt 0.131506 0.689357
vt 0.135029 0.689357
vt 0.138018 0.689357
vt 0.073795 0.736570
vt 0.076806 0.736570
vt 0.070255 0.736570
vt 0.066321 0.736570
vt 0.062146 0.736570
vt 0.057888 0.736570
vt 0.053712 0.736570
vt 0.728912 0.458600
vt 0.733014 0.457358
vt 0.733014 0.953180
vt 0.728912 0.954422
vt 0.677583 0.999278
vt 0.673377 1.000000
vt 0.720440 0.458388
vt 0.724667 0.458947
vt 0.724667 0.954770
vt 0.720440 0.954210
vt 0.699012 0.457358
vt 0.720440 0.457358
vt 0.720440 0.909060
vt 0.699012 0.909060
vt 0.669123 0.999816
vt 0.664984 0.998734
vt 0.699012 0.952029
vt 0.677583 0.952029
vt 0.677583 0.457358
vt 0.699011 0.457358
vt 0.181407 0.689357
vt 0.185536 0.689357
vt 0.189384 0.689357
vt 0.189384 0.712648
vt 0.185536 0.712648
vt 0.181407 0.712648
vt 0.177155 0.712648
vt 0.177155 0.689357
vt 0.158175 0.513050
vt 0.158175 0.572829
vt 0.106006 0.572829
vt 0.106006 0.513050
vt 0.220150 0.513050
vt 0.220150 0.572829
vt 0.526784 0.513050
vt 0.526784 0.572829
vt 0.467065 0.572829
vt 0.467065 0.513050
vt 0.409410 0.572829
vt 0.409410 0.513050
vt 0.311896 0.513050
vt 0.303947 0.572829
vt 0.513994 0.045226
vt 0.544209 0.000000
vt 0.634220 0.000000
vt 0.592140 0.045226
vt 0.041519 0.228434
vt 0.000000 0.211024
vt 0.000000 0.079391
vt 0.041519 0.114153
vt 0.438547 0.045226
vt 0.457307 0.000000
vt 0.197489 0.643717
vt 0.300541 0.643717
vt 0.298348 0.689357
vt 0.172044 0.689357
vt 0.300541 0.045226
vt 0.190886 0.045226
vt 0.172044 0.000000
vt 0.298348 0.000000
vt 0.041519 0.565492
vt 0.041519 0.643717
vt 0.000000 0.689357
vt 0.000000 0.599256
vt 0.592141 0.440672
vt 0.592141 0.228434
vt 0.634220 0.211024
vt 0.634220 0.455485
vt 0.592141 0.643717
vt 0.634220 0.689357
vt 0.544209 0.689357
vt 0.513994 0.643717
vt 0.109786 0.045226
vt 0.078631 0.000000
vt 0.116389 0.643717
vt 0.078631 0.689357
vt 0.041519 0.045226
vt 0.000000 0.000000
vt 0.457307 0.689357
vt 0.438547 0.643717
vt 0.592141 0.565492
vt 0.634220 0.599256
vt 0.000000 0.455485
vt 0.041519 0.440672
vt 0.634220 0.079391
vt 0.592141 0.114152
vt 0.526784 0.168143
vt 0.580502 0.123767
vt 0.580502 0.233250
vt 0.526784 0.255476
vt 0.526784 0.115471
vt 0.580502 0.057735
vt 0.106006 0.255476
vt 0.106006 0.417665
vt 0.053003 0.436575
vt 0.053003 0.233250
vt 0.580502 0.556153
vt 0.580502 0.631093
vt 0.053003 0.556153
vt 0.433359 0.631093
vt 0.301148 0.631093
vt 0.196097 0.631093
vt 0.118403 0.631093
vt 0.526784 0.417665
vt 0.580502 0.436575
vt 0.303947 0.115471
vt 0.301148 0.057735
vt 0.433359 0.057735
vt 0.409410 0.115471
vt 0.505637 0.631093
vt 0.106006 0.115471
vt 0.053003 0.057735
vt 0.118403 0.057735
vt 0.158175 0.115471
vt 0.106006 0.168143
vt 0.053003 0.123767
vt 0.053003 0.631093
vt 0.196097 0.057735
vt 0.220150 0.115471
vt 0.467065 0.115471
vt 0.505637 0.057735
vt 0.165540 0.775318
vt 0.165540 0.690869
vt 0.177155 0.689357
vt 0.177155 0.777508
vt 1.000000 0.457358
vt 0.912243 0.457358
vt 0.763027 0.457358
vt 0.682679 0.457358
vt 0.634220 0.457358
vt 0.634220 0.400654
vt 0.634220 0.333291
vt 0.634220 0.242209
vt 0.634220 0.127578
vt 0.634220 0.064910
vt 0.634220 0.000000
vt 0.682679 0.000000
vt 0.763027 0.000000
vt 0.912243 0.000000
vt 1.000000 0.000000
vt 1.000000 0.064910
vt 1.000000 0.127578
vt 1.000000 0.233569
vt 1.000000 0.333291
vt 1.000000 0.400654
vn 0.0980 0.0000 -0.9952
vn 0.2903 0.0000 -0.9569
vn 0.4714 0.0000 -0.8819
vn 0.6344 0.0000 -0.7730
vn 0.7730 0.0000 -0.6344
vn 0.8819 0.0000 -0.4714
vn 0.9569 0.0000 -0.2903
vn 0.9952 0.0000 -0.0980
vn 0.9952 0.0000 0.0980
vn 0.9569 0.0000 0.2903
vn 0.8819 0.0000 0.4714
vn 0.7730 0.0000 0.6344
vn 0.6344 0.0000 0.7730
vn 0.4714 0.0000 0.8819
vn 0.2903 0.0000 0.9569
vn 0.0980 0.0000 0.9952
vn -0.0980 0.0000 0.9952
vn -0.2903 0.0000 0.9569
vn -0.8819 0.0000 0.4714
vn -0.9569 0.0000 0.2903
vn -0.9952 0.0000 0.0980
vn -0.9952 0.0000 -0.0980
vn -0.9569 0.0000 -0.2903
vn -0.8819 0.0000 -0.4714
vn -0.7730 0.0000 -0.6344
vn -0.6344 0.0000 -0.7730
vn -0.4714 0.0000 -0.8819
vn 0.0000 1.0000 0.0000
vn -0.2903 0.0000 -0.9569
vn -0.0980 0.0000 -0.9952
vn 0.0000 -1.0000 0.0000
vn -0.7730 0.0000 0.6344
vn -0.6344 0.0000 0.7730
vn -0.4714 0.0000 0.8819
vn -0.7231 0.0000 -0.6907
vn 0.7231 0.0000 0.6907
usemtl Material.002
s off
f 65/1/1 2/2/1 4/3/1 66/4/1
f 66/4/2 4/3/2 6/5/2 67/6/2
f 67/6/3 6/5/3 8/7/3 68/8/3
f 68/8/4 8/7/4 10/9/4 69/10/4
f 69/10/5 10/9/5 12/11/5 70/12/5
f 70/12/6 12/11/6 14/13/6 71/14/6
f 71/14/7 14/13/7 16/15/7 72/16/7
f 72/17/8 16/18/8 18/19/8 73/20/8
f 73/20/9 18/19/9 20/21/9 74/22/9
f 74/22/10 20/21/10 22/23/10 75/24/10
f 75/24/11 22/23/11 24/25/11 76/26/11
f 76/26/12 24/25/12 26/27/12 77/28/12
f 77/28/13 26/27/13 28/29/13 78/30/13
f 78/30/14 28/29/14 30/31/14 79/32/14
f 79/32/15 30/31/15 32/33/15 80/34/15
f 80/35/16 32/36/16 34/37/16 81/38/16
f 81/38/17 34/37/17 36/39/17 82/40/17
f 82/40/18 36/39/18 38/41/18 83/42/18
f 86/43/19 44/44/19 46/45/19 87/46/19
f 87/47/20 46/48/20 48/49/20 88/50/20
f 88/50/21 48/49/21 50/51/21 89/52/21
f 89/52/22 50/51/22 52/53/22 90/54/22
f 90/54/23 52/53/23 54/55/23 91/56/23
f 91/56/24 54/55/24 56/57/24 92/58/24
f 92/58/25 56/57/25 58/59/25 93/60/25
f 93/60/26 58/59/26 60/61/26 94/62/26
f 94/62/27 60/61/27 62/63/27 95/64/27
f 4/65/28 2/66/28 64/67/28 62/68/28 60/69/28 58/70/28 56/71/28 54/72/28 52/73/28 50/74/28 48/75/28 46/76/28 44/77/28 42/78/28 40/79/28 38/80/28 36/81/28 34/82/28 32/83/28 30/84/28 28/85/28 26/86/28 24/87/28 22/88/28 20/89/28 18/90/28 16/91/28 14/92/28 12/93/28 10/94/28 8/95/28 6/96/28
f 95/97/29 62/98/29 64/99/29 96/100/29
f 96/100/30 64/99/30 2/2/30 65/1/30
f 1/101/31 3/102/31 5/103/31 7/104/31 9/105/31 11/106/31 13/107/31 15/108/31 17/109/31 19/110/31 21/111/31 23/112/31 25/113/31 27/114/31 29/115/31 31/116/31 33/117/31 35/118/31 37/119/31 39/120/31 41/121/31 43/122/31 45/123/31 47/124/31 49/125/31 51/126/31 53/127/31 55/128/31 57/129/31 59/130/31 61/131/31 63/132/31
f 63/133/30 96/100/30 65/1/30 1/134/30
f 61/135/29 95/97/29 96/100/29 63/133/29
f 59/136/27 94/62/27 95/64/27 61/137/27
f 57/138/26 93/60/26 94/62/26 59/136/26
f 55/139/25 92/58/25 93/60/25 57/138/25
f 53/140/24 91/56/24 92/58/24 55/139/24
f 51/141/23 90/54/23 91/56/23 53/140/23
f 49/142/22 89/52/22 90/54/22 51/141/22
f 47/143/21 88/50/21 89/52/21 49/142/21
f 45/144/20 87/47/20 88/50/20 47/143/20
f 43/145/19 86/43/19 87/46/19 45/146/19
f 41/147/32 85/148/32 86/43/32 43/145/32
f 39/149/33 84/150/33 85/148/33 41/147/33
f 37/151/34 83/42/34 84/150/34 39/149/34
f 35/152/18 82/40/18 83/42/18 37/151/18
f 33/153/17 81/38/17 82/40/17 35/152/17
f 31/154/16 80/35/16 81/38/16 33/153/16
f 29/155/15 79/32/15 80/34/15 31/156/15
f 27/157/14 78/30/14 79/32/14 29/155/14
f 25/158/13 77/28/13 78/30/13 27/157/13
f 23/159/12 76/26/12 77/28/12 25/158/12
f 21/160/11 75/24/11 76/26/11 23/159/11
f 19/161/10 74/22/10 75/24/10 21/160/10
f 17/162/9 73/20/9 74/22/9 19/161/9
f 15/163/8 72/17/8 73/20/8 17/162/8
f 13/164/7 71/14/7 72/16/7 15/165/7
f 11/166/6 70/12/6 71/14/6 13/164/6
f 9/167/5 69/10/5 70/12/5 11/166/5
f 7/168/4 68/8/4 69/10/4 9/167/4
f 5/169/3 67/6/3 68/8/3 7/168/3
f 3/170/2 66/4/2 67/6/2 5/169/2
f 1/134/1 65/1/1 66/4/1 3/170/1
f 84/171/31 83/172/31 101/173/31 102/174/31
f 42/78/28 44/77/28 100/175/28 99/176/28
f 86/177/31 85/178/31 103/179/31 104/180/31
f 44/181/35 86/182/35 104/183/35 100/184/35
f 38/80/28 40/79/28 98/185/28 97/186/28
f 85/178/31 84/171/31 102/174/31 103/179/31
f 40/79/28 42/78/28 99/176/28 98/185/28
f 83/187/36 38/188/36 97/189/36 101/190/36
f 98/191/33 99/192/33 100/193/33 104/194/33 103/195/33 102/196/33 101/197/33 97/198/33
f 105/199/28 108/200/28 107/201/28 106/202/28
f 116/203/28 117/204/28 108/200/28 105/199/28
f 118/205/28 109/206/28 110/207/28 121/208/28
f 121/208/28 110/207/28 123/209/28 128/210/28
f 130/211/28 127/212/28 117/204/28 116/203/28
f 128/210/28 123/209/28 127/212/28 130/211/28
f 176/213/28 132/214/28 133/215/28 177/216/28
f 178/217/28 134/218/28 135/219/28 179/220/28
f 176/213/28 180/221/28 136/222/28 132/214/28
f 181/223/28 182/224/28 137/225/28 138/226/28
f 183/227/28 184/228/28 139/229/28 140/230/28
f 185/231/28 186/232/28 141/233/28 142/234/28
f 187/235/28 188/236/28 143/237/28 144/238/28
f 189/239/28 145/240/28 146/241/28 190/242/28
f 191/243/28 147/244/28 139/229/28 184/228/28
f 186/232/28 192/245/28 148/246/28 141/233/28
f 193/247/28 179/220/28 135/219/28 149/248/28
f 193/247/28 149/248/28 147/244/28 191/243/28
f 190/242/28 146/241/28 150/249/28 194/250/28
f 183/227/28 140/230/28 136/222/28 180/221/28
f 195/251/28 187/235/28 144/238/28 151/252/28
f 192/245/28 181/223/28 138/226/28 148/246/28
f 194/250/28 150/249/28 137/225/28 182/224/28
f 185/231/28 142/234/28 152/253/28 196/254/28
f 195/251/28 151/252/28 145/240/28 189/239/28
f 178/217/28 196/254/28 152/253/28 134/218/28
f 177/216/28 133/215/28 153/255/28 197/256/28
f 197/256/28 153/255/28 143/237/28 188/236/28
f 114/257/28 175/258/28 166/259/28 125/260/28
f 113/261/28 155/262/28 175/258/28 114/257/28
f 131/263/28 119/264/28 174/265/28 156/266/28
f 118/205/28 173/267/28 167/268/28 109/206/28
f 106/202/28 163/269/28 174/265/28 119/264/28
f 123/209/28 172/270/28 160/271/28 127/212/28
f 108/200/28 117/204/28 159/272/28 170/273/28
f 118/205/28 120/274/28 165/275/28 173/267/28
f 129/276/28 161/277/28 158/278/28 126/279/28
f 110/207/28 168/280/28 172/270/28 123/209/28
f 111/281/28 171/282/28 169/283/28 112/284/28
f 111/281/28 124/285/28 157/286/28 171/282/28
f 107/201/28 108/200/28 170/273/28 164/287/28
f 112/284/28 169/283/28 162/288/28 115/289/28
f 109/206/28 167/268/28 168/280/28 110/207/28
f 120/274/28 125/260/28 166/259/28 165/275/28
f 106/202/28 107/201/28 164/287/28 163/269/28
f 129/276/28 115/289/28 162/288/28 161/277/28
f 117/204/28 127/212/28 160/271/28 159/272/28
f 122/290/28 126/279/28 158/278/28 154/291/28
f 131/263/28 156/266/28 157/286/28 124/285/28
f 122/290/28 154/291/28 155/262/28 113/261/28
f 175/258/28 197/256/28 188/236/28 166/259/28
f 155/262/28 177/216/28 197/256/28 175/258/28
f 156/266/28 174/265/28 196/254/28 178/217/28
f 173/267/28 195/251/28 189/239/28 167/268/28
f 163/269/28 185/231/28 196/254/28 174/265/28
f 172/270/28 194/250/28 182/224/28 160/271/28
f 173/267/28 165/275/28 187/235/28 195/251/28
f 161/277/28 183/227/28 180/221/28 158/278/28
f 168/280/28 190/242/28 194/250/28 172/270/28
f 171/282/28 193/247/28 191/243/28 169/283/28
f 171/282/28 157/286/28 179/220/28 193/247/28
f 164/287/28 170/273/28 192/245/28 186/232/28
f 169/283/28 191/243/28 184/228/28 162/288/28
f 167/268/28 189/239/28 190/242/28 168/280/28
f 165/275/28 166/259/28 188/236/28 187/235/28
f 163/269/28 164/287/28 186/232/28 185/231/28
f 161/277/28 162/288/28 184/228/28 183/227/28
f 159/272/28 160/271/28 182/224/28 181/223/28
f 154/291/28 158/278/28 180/221/28 176/213/28
f 156/266/28 178/217/28 179/220/28 157/286/28
f 154/291/28 176/213/28 177/216/28 155/262/28
f 170/292/28 159/293/28 181/294/28 192/295/28
f 106/296/28 119/297/28 131/298/28 124/299/28 111/300/28 112/301/28 115/302/28 129/303/28 126/304/28 122/305/28 113/306/28 114/307/28 125/308/28 120/309/28 118/310/28 121/311/28 128/312/28 130/313/28 116/314/28 105/315/28
